<svg width="117" height="117" viewBox="0 0 117 117" fill="none" xmlns="http://www.w3.org/2000/svg">
    <circle cx="58.5" cy="58.5" r="58.5" fill="#FFD460" fill-opacity="0.4"/>
    <g clip-path="url(#clip0)">
        <path d="M64.5 67.75H51.6667C49.8951 67.75 48.4583 69.7092 48.4583 72.125V89.625C48.4583 92.0408 49.8951 94 51.6667 94H64.5C66.2716 94 67.7083 92.0408 67.7083 89.625V72.125C67.7083 69.7092 66.2716 67.75 64.5 67.75ZM45.25 28.375C45.25 25.9592 43.8133 24 42.0417 24H29.2083C27.4367 24 26 25.9592 26 28.375V45.875C26 48.2908 27.4367 50.25 29.2083 50.25H38.8053L46.1403 67.7555C47.2532 65.1496 49.3005 63.375 51.6667 63.375H51.6947L45.25 47.9955V41.5H67.7083V32.75H45.25V28.375ZM86.9583 24H74.125C72.3534 24 70.9167 25.9592 70.9167 28.375V45.875C70.9167 48.2908 72.3534 50.25 74.125 50.25H86.9583C88.7299 50.25 90.1667 48.2908 90.1667 45.875V28.375C90.1667 25.9592 88.7299 24 86.9583 24Z" fill="#FFD460"/>
    </g>
    <defs>
        <clipPath id="clip0">
            <rect width="64.1667" height="70" fill="white" transform="translate(26 24)"/>
        </clipPath>
    </defs>
</svg>
