<svg width="117" height="117" viewBox="0 0 117 117" fill="none" xmlns="http://www.w3.org/2000/svg">
    <circle cx="58.5" cy="58.5" r="58.5" fill="#EA5455" fill-opacity="0.4"/>
    <g clip-path="url(#clip0)">
        <path d="M90.1667 34V40.25C90.1667 45.7578 75.7961 50.25 58.0833 50.25C40.3706 50.25 26 45.7578 26 40.25V34C26 28.4922 40.3706 24 58.0833 24C75.7961 24 90.1667 28.4922 90.1667 34ZM90.1667 48.0625V62.125C90.1667 67.6328 75.7961 72.125 58.0833 72.125C40.3706 72.125 26 67.6328 26 62.125V48.0625C32.8929 52.5938 45.509 54.7032 58.0833 54.7032C70.6577 54.7032 83.2736 52.5938 90.1667 48.0625ZM90.1667 69.9375V84C90.1667 89.5078 75.7961 94 58.0833 94C40.3706 94 26 89.5078 26 84V69.9375C32.8929 74.4688 45.509 76.5782 58.0833 76.5782C70.6577 76.5782 83.2736 74.4688 90.1667 69.9375Z" fill="#EA5455"/>
    </g>
    <defs>
        <clipPath id="clip0">
            <rect width="64.1667" height="70" fill="white" transform="translate(26 24)"/>
        </clipPath>
    </defs>
</svg>
