<svg width="65" height="70" viewBox="0 0 65 70" fill="none" xmlns="http://www.w3.org/2000/svg">
    <g clip-path="url(#clip0)">
        <path d="M21.4622 54.332C21.4622 54.6055 21.1646 54.8242 20.7895 54.8242C20.3626 54.8652 20.065 54.6465 20.065 54.332C20.065 54.0586 20.3626 53.8398 20.7377 53.8398C21.1258 53.7988 21.4622 54.0176 21.4622 54.332ZM17.4388 53.7168C17.3483 53.9902 17.607 54.3047 17.9951 54.3867C18.3315 54.5234 18.7196 54.3867 18.7972 54.1133C18.8748 53.8398 18.629 53.5254 18.2409 53.4023C17.9046 53.3066 17.5294 53.4434 17.4388 53.7168ZM23.1569 53.4844C22.7818 53.5801 22.523 53.8398 22.5618 54.1543C22.6006 54.4277 22.937 54.6055 23.3251 54.5098C23.7003 54.4141 23.959 54.1543 23.9202 53.8809C23.8814 53.6211 23.5321 53.4434 23.1569 53.4844ZM31.6694 1.09375C13.726 1.09375 0 15.4902 0 34.4531C0 49.6152 9.02991 62.5898 21.9279 67.1562C23.5838 67.4707 24.166 66.3906 24.166 65.502C24.166 64.6543 24.1272 59.9785 24.1272 57.1074C24.1272 57.1074 15.0714 59.1582 13.1697 53.0332C13.1697 53.0332 11.6949 49.0547 9.57325 48.0293C9.57325 48.0293 6.61072 45.8828 9.78024 45.9238C9.78024 45.9238 13.0015 46.1973 14.7739 49.4512C17.607 54.7285 22.3548 53.2109 24.2048 52.3086C24.5024 50.1211 25.3432 48.6035 26.2747 47.7012C19.043 46.8535 11.7466 45.7461 11.7466 32.5938C11.7466 28.834 12.7298 26.9473 14.7997 24.541C14.4634 23.6523 13.3637 19.9883 15.1361 15.2578C17.8399 14.3691 24.0625 18.9492 24.0625 18.9492C26.6499 18.1836 29.4313 17.7871 32.1868 17.7871C34.9424 17.7871 37.7238 18.1836 40.3112 18.9492C40.3112 18.9492 46.5338 14.3555 49.2376 15.2578C51.0099 20.002 49.9103 23.6523 49.5739 24.541C51.6438 26.9609 52.9116 28.8477 52.9116 32.5938C52.9116 45.7871 45.2918 46.8398 38.0601 47.7012C39.2503 48.7812 40.2594 50.832 40.2594 54.0449C40.2594 58.6523 40.2206 64.3535 40.2206 65.4746C40.2206 66.3633 40.8157 67.4434 42.4587 67.1289C55.3955 62.5898 64.1667 49.6152 64.1667 34.4531C64.1667 15.4902 49.6127 1.09375 31.6694 1.09375ZM12.5746 48.248C12.4064 48.3848 12.4452 48.6992 12.6652 48.959C12.8721 49.1777 13.1697 49.2734 13.3379 49.0957C13.506 48.959 13.4672 48.6445 13.2473 48.3848C13.0403 48.166 12.7428 48.0703 12.5746 48.248ZM11.1774 47.1406C11.0869 47.3184 11.2162 47.5371 11.475 47.6738C11.682 47.8105 11.9407 47.7695 12.0312 47.5781C12.1218 47.4004 11.9924 47.1816 11.7337 47.0449C11.475 46.9629 11.268 47.0039 11.1774 47.1406ZM15.369 52.0078C15.162 52.1855 15.2396 52.5957 15.5371 52.8555C15.8347 53.1699 16.2098 53.2109 16.378 52.9922C16.5462 52.8145 16.4686 52.4043 16.2098 52.1445C15.9252 51.8301 15.5371 51.7891 15.369 52.0078ZM13.8942 49.998C13.6872 50.1348 13.6872 50.4902 13.8942 50.8047C14.1011 51.1191 14.4504 51.2559 14.6186 51.1191C14.8256 50.9414 14.8256 50.5859 14.6186 50.2715C14.4375 49.957 14.1011 49.8203 13.8942 49.998Z" fill="#ED6229"/>
    </g>
    <defs>
        <clipPath id="clip0">
            <rect width="64.1667" height="70" fill="white"/>
        </clipPath>
    </defs>
</svg>
