<svg width="117" height="117" viewBox="0 0 117 117" fill="none" xmlns="http://www.w3.org/2000/svg">
    <circle cx="58.5" cy="58.5" r="58.5" fill="#9C1DE7" fill-opacity="0.4"/>
    <g clip-path="url(#clip0)">
        <path d="M58.0833 25.0938C40.3638 25.0938 26 40.2736 26 59C26 77.7264 40.3638 92.9062 58.0833 92.9062C75.8029 92.9062 90.1667 77.7264 90.1667 59C90.1667 40.2736 75.8029 25.0938 58.0833 25.0938ZM68.729 73.9844C68.2245 74.5148 67.6954 75.0713 67.2659 75.5266C66.8791 75.9367 66.6061 76.4426 66.4677 76.9908C66.2723 77.7646 66.1145 78.5467 65.8506 79.2973L63.6009 85.7025C61.8208 86.1127 59.9786 86.3438 58.0833 86.3438V82.6004C58.302 80.875 57.095 77.643 55.1557 75.5936C54.3795 74.7732 53.9435 73.6604 53.9435 72.4996V68.1232C53.9435 66.5318 53.1324 65.0689 51.8141 64.2992C49.9551 63.2123 47.3108 61.6934 45.4997 60.7295C44.0145 59.9393 42.6406 58.933 41.4052 57.7559L41.3017 57.6574C40.4182 56.8146 39.6338 55.8626 38.9653 54.8219C37.7518 52.9393 35.7751 49.8426 34.4904 47.8301C37.1386 41.6094 41.911 36.6137 47.8412 33.8998L50.9474 35.5418C52.3239 36.2691 53.9435 35.2123 53.9435 33.5854V32.0404C54.9772 31.8641 56.029 31.752 57.0988 31.7096L60.76 35.5787C61.5685 36.4332 61.5685 37.8182 60.76 38.6727L60.1532 39.3125L58.8156 40.7262C58.4119 41.1527 58.4119 41.8459 58.8156 42.2725L59.4223 42.9137C59.8259 43.3402 59.8259 44.0334 59.4223 44.46L58.3873 45.5537C58.193 45.7587 57.9297 45.8737 57.6551 45.8736H56.4921C56.223 45.8736 55.9643 45.9844 55.7702 46.184L54.4869 47.5033C54.3296 47.6652 54.225 47.8757 54.1883 48.1045C54.1515 48.3333 54.1845 48.5685 54.2825 48.7762L56.2993 53.0404C56.6435 53.7678 56.1428 54.6236 55.3744 54.6236H54.6447C54.395 54.6236 54.1544 54.5279 53.9668 54.3557L52.7663 53.2537C52.4946 53.0046 52.1663 52.8346 51.8136 52.7603C51.4608 52.686 51.0959 52.7099 50.7546 52.8299L46.7222 54.2504C46.4144 54.3589 46.1466 54.567 45.9569 54.8453C45.7672 55.1235 45.6652 55.4578 45.6653 55.8008C45.6653 56.4201 45.9965 56.9848 46.5204 57.2623L47.9538 58.0197C49.1712 58.6637 50.514 58.9986 51.8749 58.9986C53.2359 58.9986 54.7974 62.7297 56.0147 63.3736H64.6501C65.7484 63.3736 66.8002 63.8344 67.5777 64.6547L69.3487 66.5264C70.0886 67.3086 70.5042 68.3694 70.504 69.4754C70.5037 70.3135 70.3468 71.1432 70.0422 71.917C69.7376 72.6908 69.2913 73.3934 68.729 73.9844ZM79.9466 61.4951C79.1975 61.2969 78.5442 60.8115 78.116 60.132L75.79 56.4447C75.4496 55.906 75.268 55.2728 75.268 54.625C75.268 53.9772 75.4496 53.344 75.79 52.8053L78.3243 48.7885C78.6244 48.3141 79.0358 47.9285 79.5197 47.6742L81.1989 46.7869C82.9479 50.4674 83.957 54.6072 83.957 59C83.957 60.1854 83.8613 61.3461 83.7215 62.4918L79.9466 61.4951Z" fill="#9C1DE7"/>
    </g>
    <defs>
        <clipPath id="clip0">
            <rect width="64.1667" height="70" fill="white" transform="translate(26 24)"/>
        </clipPath>
    </defs>
</svg>
