<svg width="65" height="70" viewBox="0 0 65 70" fill="none" xmlns="http://www.w3.org/2000/svg">
    <g clip-path="url(#clip0)">
        <path d="M64.3334 35.793C64.3334 55.1387 51.5921 68.9062 32.776 68.9062C14.7357 68.9062 0.166748 53.7578 0.166748 35C0.166748 16.2422 14.7357 1.09375 32.776 1.09375C41.5595 1.09375 48.9492 4.44336 54.6427 9.9668L45.7672 18.8398C34.1567 7.19141 12.5662 15.9414 12.5662 35C12.5662 46.8262 21.6521 56.4102 32.776 56.4102C45.6883 56.4102 50.5271 46.7852 51.2897 41.7949H32.776V30.1328H63.8206C64.123 31.8691 64.3334 33.5371 64.3334 35.793Z" fill="#ED6229"/>
    </g>
    <defs>
        <clipPath id="clip0">
            <rect width="64.1667" height="70" fill="white" transform="translate(0.166748)"/>
        </clipPath>
    </defs>
</svg>
