<svg width="117" height="117" viewBox="0 0 117 117" fill="none" xmlns="http://www.w3.org/2000/svg">
    <circle cx="58.5" cy="58.5" r="58.5" fill="#66D37E" fill-opacity="0.4"/>
    <g clip-path="url(#clip0)">
        <path d="M67.9551 37.125C72.0442 37.125 75.359 34.1869 75.359 30.5625C75.359 26.9381 72.0442 24 67.9551 24C63.866 24 60.5513 26.9381 60.5513 30.5625C60.5513 34.1869 63.866 37.125 67.9551 37.125ZM43.5363 67.4041L41.2535 72.1236H30.9359C28.2104 72.1236 26 74.0828 26 76.4986C26 78.9145 28.2104 80.8736 30.9359 80.8736H42.8823C45.8516 80.8736 48.5247 79.3096 49.6861 76.8965L51.042 74.091L49.3962 73.2297C46.7246 71.8311 44.7595 69.7611 43.5363 67.4041ZM85.2308 54.6236H78.4393L74.4196 47.3434C72.4915 43.8502 68.9516 41.2963 64.8902 40.3789L53.9264 37.4887C49.5612 36.559 45.0155 37.4135 41.4571 39.832L35.3381 43.9896C33.174 45.4594 32.7637 48.2047 34.425 50.1229C36.0862 52.041 39.1819 52.4006 41.3445 50.9322L47.4665 46.7746C48.6496 45.9693 50.1566 45.6809 51.3643 45.9352L53.6318 46.5326L47.8537 58.4805C45.9071 62.5109 47.6516 67.2318 51.9104 69.4604L65.0183 76.3195L60.7811 88.3139C59.9667 90.6189 61.4151 93.073 64.0157 93.7949C64.5077 93.9316 65.0044 93.9973 65.4934 93.9973C67.5926 93.9973 69.5392 92.7982 70.201 90.9279L75.0813 77.1111C75.9929 74.2715 74.6356 71.2213 71.7434 69.675L62.2974 64.734L67.1268 54.0316L70.2534 59.6959C71.4874 61.9299 74.0972 63.3723 76.903 63.3723H85.2308C87.9563 63.3723 90.1667 61.4131 90.1667 58.9973C90.1667 56.5814 87.9563 54.6236 85.2308 54.6236Z" fill="#66D37E"/>
    </g>
    <defs>
        <clipPath id="clip0">
            <rect width="64.1667" height="70" fill="white" transform="translate(26 24)"/>
        </clipPath>
    </defs>
</svg>
