<svg width="117" height="117" viewBox="0 0 117 117" fill="none" xmlns="http://www.w3.org/2000/svg">
    <circle cx="58.5" cy="58.5" r="58.5" fill="#44D9E6" fill-opacity="0.4"/>
    <g clip-path="url(#clip0)">
        <path d="M58.0833 59C68.2096 59 76.4167 51.166 76.4167 41.5C76.4167 31.834 68.2096 24 58.0833 24C47.957 24 39.75 31.834 39.75 41.5C39.75 51.166 47.957 59 58.0833 59ZM40.8958 81.9688C40.8958 83.7871 42.4284 85.25 44.3333 85.25C46.2383 85.25 47.7708 83.7871 47.7708 81.9688C47.7708 80.1504 46.2383 78.6875 44.3333 78.6875C42.4284 78.6875 40.8958 80.1504 40.8958 81.9688ZM71.8333 63.457V70.1562C77.0612 71.168 81 75.5977 81 80.875V86.5762C81 87.6152 80.2266 88.5176 79.1523 88.7227L74.5404 89.5977C73.9245 89.7207 73.3229 89.3379 73.194 88.7363L72.75 86.5898C72.6211 86.002 73.0221 85.4141 73.6523 85.3047L76.4167 84.7715V80.875C76.4167 72.2891 62.6667 71.9746 62.6667 81.1348V84.7852L65.431 85.3184C66.0469 85.4414 66.4479 86.0156 66.3333 86.6035L65.8893 88.75C65.7604 89.3379 65.1589 89.7207 64.543 89.6113L60.0742 89.0371C58.9427 88.8867 58.0977 87.9707 58.0977 86.8633V80.875C58.0977 75.5977 62.0365 71.1816 67.2643 70.1562V63.9766C66.9492 64.0723 66.6341 64.127 66.319 64.2363C63.7409 65.0977 60.9766 65.5762 58.0977 65.5762C55.2187 65.5762 52.4544 65.0977 49.8763 64.2363C48.8164 63.8809 47.7422 63.6621 46.6393 63.5254V74.6816C49.9479 75.625 52.3685 78.5234 52.3685 81.9824C52.3685 86.207 48.7734 89.6387 44.3477 89.6387C39.9219 89.6387 36.3268 86.207 36.3268 81.9824C36.3268 78.5234 38.7474 75.625 42.056 74.6816V63.6895C32.9466 65.1523 26 72.6445 26 81.75V87.875C26 91.252 28.8789 94 32.4167 94H83.75C87.2878 94 90.1667 91.252 90.1667 87.875V81.75C90.1667 71.9062 82.0312 63.9355 71.8333 63.457Z" fill="#44D9E6"/>
    </g>
    <defs>
        <clipPath id="clip0">
            <rect width="64.1667" height="70" fill="white" transform="translate(26 24)"/>
        </clipPath>
    </defs>
</svg>
