<svg width="195" height="100" viewBox="0 0 195 100" fill="none" xmlns="http://www.w3.org/2000/svg">
    <rect y="2.6665" width="194.333" height="88" fill="#ED6229"/>
    <rect x="3.5" y="6.1665" width="77.6667" height="81" fill="#ED6229" stroke="#EFEFEF" stroke-width="7"/>
    <g clip-path="url(#clip0)">
        <path d="M29.5265 42.6685L19.448 57.8921C19.1539 58.3804 19.4575 59.0151 20.0142 59.0776L39.9001 61.2329L29.5265 42.6685V42.6685ZM20.0409 52.4702L27.2301 40.522L19.912 36.0317C19.6571 35.8755 19.3334 36.063 19.3334 36.3667V52.2661C19.3334 52.6597 19.8385 52.8062 20.0409 52.4702ZM21.076 63.0337L39.6385 71.5942C40.1446 71.8335 40.7223 71.4546 40.7223 70.8853V64.4722L21.2861 62.2944C20.8612 62.2456 20.6912 62.8403 21.076 63.0337V63.0337ZM28.8314 37.8599L36.4636 23.9009C36.878 23.2114 36.1208 22.4116 35.4342 22.813L21.034 32.4429C20.7981 32.6011 20.8058 32.9565 21.0464 33.105L28.8314 37.8599V37.8599ZM42.25 38.854H52.6781L43.5515 22.4106C43.2526 21.9146 42.7513 21.6665 42.25 21.6665C41.7487 21.6665 41.2474 21.9146 40.9486 22.4106L31.822 38.854H42.25ZM64.5881 36.0317L57.27 40.5229L64.4592 52.4712C64.6606 52.8071 65.1667 52.6606 65.1667 52.2661V36.3667C65.1667 36.063 64.843 35.8755 64.5881 36.0317V36.0317ZM55.6687 37.8599L63.4537 33.104C63.6953 32.9556 63.702 32.6001 63.4661 32.4419L49.0658 22.813C48.3793 22.4116 47.6221 23.2114 48.0365 23.9009L55.6687 37.8599ZM63.214 62.2944L43.7778 64.4712V70.8843C43.7778 71.4546 44.3555 71.8325 44.8616 71.5933L63.4241 63.0327C63.8089 62.8403 63.6389 62.2456 63.214 62.2944V62.2944ZM54.9736 42.6685L44.6009 61.2329L64.4868 59.0776C65.0435 59.0142 65.3472 58.3804 65.0531 57.8921L54.9736 42.6685V42.6685ZM42.25 41.979H32.6604L42.25 59.1421L51.8397 41.979H42.25Z" fill="white"/>
    </g>
    <path d="M112.897 16H136.177V24H121.697V39.6H133.057V47.6H121.697V72H112.897V16ZM140.397 16H153.437C157.971 16 161.277 17.0667 163.357 19.2C165.437 21.28 166.477 24.5067 166.477 28.88V32.32C166.477 38.1333 164.557 41.8133 160.717 43.36V43.52C162.851 44.16 164.344 45.4667 165.197 47.44C166.104 49.4133 166.557 52.0533 166.557 55.36V65.2C166.557 66.8 166.611 68.1067 166.717 69.12C166.824 70.08 167.091 71.04 167.517 72H158.557C158.237 71.0933 158.024 70.24 157.917 69.44C157.811 68.64 157.757 67.2 157.757 65.12V54.88C157.757 52.32 157.331 50.5333 156.477 49.52C155.677 48.5067 154.264 48 152.237 48H149.197V72H140.397V16ZM152.397 40C154.157 40 155.464 39.5467 156.317 38.64C157.224 37.7333 157.677 36.2133 157.677 34.08V29.76C157.677 27.7333 157.304 26.2667 156.557 25.36C155.864 24.4533 154.744 24 153.197 24H149.197V40H152.397Z" fill="white"/>
    <defs>
        <clipPath id="clip0">
            <rect width="45.8333" height="50" fill="white" transform="translate(19.3334 21.6665)"/>
        </clipPath>
    </defs>
</svg>
